<svg width="244" height="30" viewBox="0 0 244 30" fill="none" xmlns="http://www.w3.org/2000/svg">
<path d="M48.0953 5.29147C45.7655 5.29321 43.4346 5.33476 41.1065 5.27358C40.3499 5.25338 40.1364 5.58233 40.1179 6.19522C40.0695 7.74012 40.0516 9.28619 40.01 10.8311C39.9927 11.4815 40.4481 11.4261 40.8647 11.4272C43.9799 11.4376 47.0957 11.4336 50.2109 11.4572C51.7327 11.4694 53.2603 11.3661 54.7752 11.5715C58.3111 12.0517 59.6223 13.4038 59.762 16.9628C59.8647 19.5892 59.7574 22.2266 59.5 24.8437C59.2887 26.9888 57.6169 28.8356 54.7498 28.8789C52.3549 28.9146 49.9605 29.037 47.566 29.0404C35.635 29.0578 23.704 29.0468 11.7729 29.0503C11.3118 29.0508 10.8882 29.1507 11.3765 28.4547C12.3477 27.0714 13.248 25.6378 14.1766 24.2245C14.4415 23.8223 14.8402 23.7882 15.2731 23.7865C27.5273 23.7432 39.7815 23.6838 52.0351 23.6682C52.9435 23.667 53.1778 23.3819 53.1616 22.5296C53.1316 20.9616 53.1818 19.3913 53.2453 17.8239C53.269 17.2393 53.0699 17.0696 52.5003 17.0679C48.7624 17.0569 45.0239 17.0223 41.2854 16.9836C39.8075 16.968 38.3376 16.8936 36.9075 16.4382C35.3592 15.9448 34.4433 14.9245 34.0439 13.3559C33.4934 11.1958 33.835 9.01321 33.794 6.84042C33.7698 5.57195 33.8979 4.31675 34.3429 3.12387C35.0233 1.30196 36.593 0.727161 38.3151 0.421874C39.6078 0.192763 40.9161 0.133322 42.2302 0.136207C48.3221 0.147749 54.4145 0.152366 60.507 0.143133C61.1159 0.142555 61.3531 0.17545 60.9491 0.849507C60.1781 2.13414 59.4971 3.47244 58.7815 4.79055C58.6095 5.10738 58.4139 5.35784 57.9978 5.35438C54.837 5.32841 51.6768 5.31225 48.5165 5.29263C48.3763 5.29205 48.2361 5.29205 48.0953 5.29147Z" fill="#5B5B5B"/>
<path d="M243.986 14.4645C243.986 18.8724 243.975 23.2798 243.998 27.6871C244.002 28.2544 243.867 28.4316 243.28 28.4229C240.973 28.3889 238.663 28.3842 236.356 28.4252C235.708 28.4362 235.352 28.2094 235.066 27.6513C233.216 24.0467 231.376 20.4364 229.467 16.8629C228.429 14.9198 227.396 12.9854 226.683 10.8928C226.561 10.5344 226.599 10.1172 226.316 9.81478C226.177 10.2101 226.281 10.6118 226.299 11.0071C226.551 16.5888 226.445 22.1735 226.487 27.7575C226.491 28.2729 226.34 28.4304 225.824 28.4206C224.231 28.39 222.638 28.3935 221.046 28.4194C220.555 28.4275 220.362 28.3133 220.364 27.7742C220.379 18.8897 220.378 10.0052 220.367 1.12071C220.366 0.668264 220.498 0.526874 220.954 0.530337C223.4 0.549958 225.847 0.547073 228.293 0.531491C228.665 0.529182 228.863 0.642295 229.037 0.979323C231.485 5.72081 233.966 10.4461 236.398 15.1951C236.949 16.272 237.347 17.4268 237.82 18.544C237.878 18.6814 237.963 18.8066 238.036 18.9376C238.181 18.8032 238.094 18.6364 238.085 18.4881C237.74 12.7701 237.878 7.04641 237.825 1.32443C237.819 0.686154 237.991 0.504367 238.628 0.523988C240.173 0.571311 241.72 0.564963 243.266 0.526297C243.83 0.512446 244.003 0.650951 244 1.24191C243.973 5.64925 243.986 10.0566 243.986 14.4645Z" fill="#4B66AF"/>
<path d="M156.051 28.9169C153.305 29.0115 150.805 28.4771 148.534 27.0038C145.868 25.2725 144.463 22.6934 143.761 19.719C143.214 17.4088 143.269 15.0283 143.473 12.6708C143.905 7.66445 146.334 3.87115 150.715 1.46405C153.14 0.130939 155.841 -0.170309 158.622 0.0813083C160.691 0.26829 162.644 0.727087 164.42 1.80396C167.336 3.57221 168.879 6.28748 169.513 9.54004C170.325 13.7021 170.231 17.803 168.232 21.6742C166.291 25.4323 163.197 27.7523 159.117 28.7518C158.097 29.0017 157.026 28.9498 156.051 28.9169ZM150.174 14.4033C150.164 15.7474 150.296 17.073 150.629 18.3778C151.322 21.0873 153.143 22.758 155.673 22.9952C158.753 23.2849 161.126 22.0384 162.25 19.3629C163.616 16.1115 163.493 12.7793 162.334 9.50599C160.704 4.90359 154.537 5.08422 152.29 7.71004C150.617 9.66469 150.184 11.9541 150.174 14.4033Z" fill="#4B66AF"/>
<path d="M96.1865 10.9286C96.1859 7.74414 96.2038 4.55911 96.1709 1.37465C96.164 0.73291 96.2881 0.49572 96.9881 0.521113C98.5786 0.5794 100.174 0.571898 101.765 0.523421C102.416 0.5038 102.618 0.65327 102.614 1.34349C102.583 6.9512 102.598 12.5589 102.596 18.1672C102.596 19.1137 102.69 20.0439 102.988 20.9517C103.307 21.9247 103.906 22.7004 104.841 23.0495C106.805 23.7819 108.801 23.8124 110.698 22.8129C112.012 22.1215 112.344 20.7901 112.429 19.4784C112.82 13.3778 112.522 7.26688 112.597 1.16112C112.603 0.69309 112.701 0.518805 113.206 0.527461C114.937 0.558048 116.669 0.554008 118.399 0.52977C118.855 0.523421 118.985 0.659041 118.984 1.1138C118.967 6.79077 119.012 12.4683 118.947 18.1447C118.912 21.2888 118.122 24.2031 115.661 26.4088C114.121 27.7898 112.245 28.4212 110.244 28.764C108.416 29.0768 106.55 29.0733 104.748 28.8644C100.787 28.4045 97.3644 26.6299 96.4006 21.5513C96.2159 20.576 96.1957 19.5955 96.1911 18.6133C96.1796 16.0515 96.1871 13.4904 96.1865 10.9286Z" fill="#4B66AF"/>
<path d="M196.183 15.4139C196.183 11.5606 196.229 7.70726 196.164 3.85567C196.13 1.76713 197.729 0.576564 199.184 0.562713C203.083 0.525779 206.983 0.500963 210.881 0.565599C212.635 0.594454 213.985 2.05741 213.988 3.81931C213.999 11.8249 213.974 19.8305 213.97 27.8355C213.97 28.1944 213.91 28.3831 213.483 28.3774C211.915 28.3566 210.345 28.3595 208.777 28.3774C208.382 28.382 208.26 28.247 208.266 27.8591C208.284 26.5214 208.26 25.1825 208.281 23.8448C208.288 23.4258 208.217 23.2215 207.724 23.2285C205.879 23.255 204.033 23.2521 202.187 23.2296C201.738 23.2244 201.65 23.4051 201.652 23.8021C201.661 25.1173 201.621 26.4325 201.64 27.7472C201.647 28.2192 201.523 28.3918 201.024 28.3803C199.617 28.3485 198.208 28.341 196.802 28.3831C196.223 28.4005 196.126 28.1783 196.128 27.6641C196.146 23.5805 196.138 19.4969 196.138 15.4139H196.183ZM208.237 12.5163C208.237 10.7861 208.224 9.05595 208.247 7.32579C208.252 6.87911 208.131 6.72676 207.667 6.7331C205.844 6.75734 204.021 6.75677 202.199 6.73368C201.743 6.72791 201.612 6.86642 201.614 7.32002C201.631 10.7342 201.631 14.1489 201.614 17.563C201.613 18.0068 201.729 18.1638 202.193 18.158C204.016 18.1338 205.839 18.1344 207.661 18.1574C208.12 18.1632 208.253 18.0207 208.247 17.5682C208.223 15.8848 208.237 14.2002 208.237 12.5163Z" fill="#4B66AF"/>
<path d="M73.3158 15.5611C73.3158 11.7776 73.3747 7.99235 73.2951 4.21002C73.242 1.68865 74.8948 0.486544 77.0214 0.521747C80.5043 0.578303 83.9894 0.53502 87.4739 0.537906C89.7529 0.539637 91.1333 1.90622 91.1322 4.17539C91.1282 12.02 91.112 19.8645 91.1184 27.7091C91.1195 28.2089 91.0139 28.3953 90.4743 28.382C88.9992 28.3456 87.5213 28.3456 86.045 28.3832C85.5089 28.397 85.386 28.221 85.3998 27.7154C85.4344 26.4245 85.397 25.1318 85.4194 23.8402C85.427 23.4143 85.345 23.2221 84.8597 23.2285C83.0141 23.2544 81.1685 23.251 79.3223 23.2302C78.882 23.225 78.7787 23.3883 78.7828 23.7963C78.7955 25.111 78.7568 26.4268 78.7752 27.7414C78.7816 28.2048 78.6748 28.393 78.1658 28.3808C76.7358 28.348 75.3051 28.3503 73.8751 28.3797C73.377 28.3895 73.261 28.2129 73.2633 27.742C73.2795 23.6821 73.2726 19.6216 73.2726 15.5611H73.3158ZM85.3923 12.4464C85.3923 10.7405 85.3785 9.0346 85.401 7.32926C85.4067 6.88893 85.2965 6.72619 84.8273 6.73311C82.9829 6.75793 81.1385 6.75504 79.294 6.73427C78.8612 6.72907 78.7528 6.87623 78.7539 7.2906C78.7677 10.7249 78.7677 14.1599 78.7545 17.5942C78.7528 18.0011 78.8526 18.1621 79.2912 18.1569C81.1362 18.1355 82.9806 18.1338 84.8239 18.158C85.2902 18.1644 85.4067 18.0068 85.401 17.5636C85.3785 15.8583 85.3923 14.1524 85.3923 12.4464Z" fill="#4B66AF"/>
<path d="M25.9408 20.3671C22.941 20.3671 19.9413 20.3689 16.9415 20.3625C16.7476 20.3619 16.4775 20.4762 16.3725 20.2667C16.2692 20.0607 16.5208 19.906 16.6275 19.7416C17.5197 18.3681 18.4344 17.0096 19.3151 15.6297C19.5817 15.2119 19.9009 15.0399 20.396 15.0509C21.8953 15.0855 23.3958 15.0682 24.8951 15.1034C25.467 15.1167 25.5138 14.951 25.265 14.4778C23.7836 11.6615 22.3126 8.8395 20.8617 6.00765C20.5945 5.48653 20.4405 5.44786 20.1404 5.9736C18.1061 9.53837 16.0637 13.0979 14.0121 16.6529C11.7279 20.6113 9.54878 24.6319 7.05281 28.4662C6.76483 28.9083 6.45262 29.0762 5.93323 29.0681C4.22789 29.0422 2.52139 29.0676 0.815473 29.0595C0.554045 29.0583 0.222211 29.1928 0.0479255 28.9042C-0.129822 28.6088 0.233176 28.4731 0.347442 28.2844C2.54101 24.6677 4.75478 21.0631 6.96971 17.4597C9.78193 12.885 12.6017 8.31549 15.4122 3.73963C16.0083 2.76952 16.5958 1.79306 17.1556 0.8016C17.4199 0.334723 17.7488 0.110807 18.3046 0.121195C20.0117 0.15409 21.7193 0.15409 23.427 0.147165C23.9452 0.144856 24.2724 0.352613 24.5315 0.804486C28.12 7.07183 31.7136 13.3363 35.3286 19.5881C35.706 20.2408 35.5894 20.366 34.8709 20.3596C31.8942 20.3314 28.9175 20.3475 25.9408 20.3475V20.3671Z" fill="#4B66AF"/>
<path d="M179.087 28.9157C177.227 28.9105 175.381 28.8182 173.56 28.3571C173.079 28.2353 173.032 28.0339 173.067 27.6501C173.223 25.9073 173.378 24.1639 173.523 22.4198C173.565 21.9183 173.858 22.1694 174.053 22.2433C176.117 23.027 178.245 23.3796 180.453 23.2722C182.474 23.1741 183.591 22.073 183.473 20.1842C183.392 18.8689 182.447 18.2035 181.373 17.7309C179.428 16.8739 177.315 16.3556 175.596 15.0474C174.122 13.9255 172.834 12.5375 172.586 10.636C171.923 5.53264 173.739 2.06945 179.075 0.58225C181.982 -0.227427 184.94 -0.0329426 187.887 0.434511C188.334 0.505495 188.533 0.689591 188.472 1.20033C188.293 2.72504 188.171 4.25609 188.022 5.78426C187.983 6.18939 187.836 6.21016 187.425 6.09013C185.769 5.60594 184.082 5.2112 182.336 5.40914C181.103 5.54938 179.909 5.82235 179.445 7.21721C179.104 8.24099 179.475 9.34441 180.447 9.9723C181.935 10.9338 183.641 11.4462 185.232 12.1993C187.949 13.4857 190.156 15.2389 190.587 18.4586C190.918 20.9332 190.303 23.1712 188.716 25.1317C186.852 27.4331 184.287 28.3958 181.503 28.8938C180.721 29.0335 179.894 28.9151 179.087 28.9157Z" fill="#4B66AF"/>
<path d="M128.867 17.155C128.867 13.6479 128.858 10.1403 128.878 6.63321C128.881 6.15536 128.763 5.99839 128.268 6.00647C126.468 6.03475 124.668 6.00416 122.869 6.02725C122.36 6.03359 122.125 5.93491 122.143 5.348C122.187 3.94217 122.173 2.53346 122.149 1.12648C122.141 0.678073 122.274 0.530335 122.733 0.531489C128.94 0.543608 135.147 0.544185 141.354 0.52918C141.835 0.528026 141.928 0.705774 141.921 1.13514C141.901 2.56578 141.895 3.99642 141.924 5.42648C141.935 5.92164 141.767 6.05437 141.289 6.04745C139.49 6.02321 137.689 6.06014 135.89 6.02436C135.335 6.0134 135.2 6.18364 135.202 6.7215C135.218 13.6895 135.204 20.658 135.228 27.6259C135.23 28.2734 135.041 28.4402 134.414 28.4235C132.823 28.3808 131.229 28.3744 129.639 28.4269C128.972 28.4489 128.849 28.2151 128.854 27.6075C128.881 24.1235 128.867 20.6389 128.867 17.155Z" fill="#4B66AF"/>
<path d="M48.0952 5.2915C48.236 5.29208 48.3763 5.29208 48.5165 5.29266C48.3388 5.55178 48.2741 5.5512 48.0952 5.2915Z" fill="#4B66AF"/>
</svg>
